<mxfile host="app.diagrams.net" agent="Mozilla/5.0 (X11; Linux x86_64) AppleWebKit/537.36 (KHTML, like Gecko) Chrome/133.0.0.0 Safari/537.36" version="26.0.16">
  <diagram id="C5RBs43oDa-KdzZeNtuy" name="Page-1">
    <mxGraphModel dx="1292" dy="695" grid="1" gridSize="10" guides="1" tooltips="1" connect="1" arrows="1" fold="1" page="1" pageScale="1" pageWidth="827" pageHeight="1169" math="0" shadow="0">
      <root>
        <mxCell id="WIyWlLk6GJQsqaUBKTNV-0" />
        <mxCell id="WIyWlLk6GJQsqaUBKTNV-1" parent="WIyWlLk6GJQsqaUBKTNV-0" />
        <mxCell id="s57DOJI4i6BRteukUd8u-2" style="edgeStyle=orthogonalEdgeStyle;rounded=0;orthogonalLoop=1;jettySize=auto;html=1;entryX=0.5;entryY=0;entryDx=0;entryDy=0;endArrow=diamondThin;endFill=0;strokeWidth=1;jumpSize=6;endSize=15;" edge="1" parent="WIyWlLk6GJQsqaUBKTNV-1" source="zkfFHV4jXpPFQw0GAbJ--17" target="5PPMLMj4jmD3S_VS75an-14">
          <mxGeometry relative="1" as="geometry" />
        </mxCell>
        <mxCell id="zkfFHV4jXpPFQw0GAbJ--17" value="Car" style="swimlane;fontStyle=0;align=center;verticalAlign=top;childLayout=stackLayout;horizontal=1;startSize=26;horizontalStack=0;resizeParent=1;resizeLast=0;collapsible=1;marginBottom=0;rounded=0;shadow=0;strokeWidth=1;" parent="WIyWlLk6GJQsqaUBKTNV-1" vertex="1">
          <mxGeometry x="510" y="478" width="320" height="236" as="geometry">
            <mxRectangle x="550" y="140" width="160" height="26" as="alternateBounds" />
          </mxGeometry>
        </mxCell>
        <mxCell id="zkfFHV4jXpPFQw0GAbJ--18" value="- owner_: Owner" style="text;align=left;verticalAlign=top;spacingLeft=4;spacingRight=4;overflow=hidden;rotatable=0;points=[[0,0.5],[1,0.5]];portConstraint=eastwest;" parent="zkfFHV4jXpPFQw0GAbJ--17" vertex="1">
          <mxGeometry y="26" width="320" height="26" as="geometry" />
        </mxCell>
        <mxCell id="5PPMLMj4jmD3S_VS75an-0" value="- engine_: Engine" style="text;strokeColor=none;fillColor=none;align=left;verticalAlign=middle;spacingLeft=4;spacingRight=4;overflow=hidden;points=[[0,0.5],[1,0.5]];portConstraint=eastwest;rotatable=0;whiteSpace=wrap;html=1;" parent="zkfFHV4jXpPFQw0GAbJ--17" vertex="1">
          <mxGeometry y="52" width="320" height="30" as="geometry" />
        </mxCell>
        <mxCell id="zkfFHV4jXpPFQw0GAbJ--20" value="- wheels_: std::vector&lt;Wheel&gt;" style="text;align=left;verticalAlign=top;spacingLeft=4;spacingRight=4;overflow=hidden;rotatable=0;points=[[0,0.5],[1,0.5]];portConstraint=eastwest;rounded=0;shadow=0;html=0;" parent="zkfFHV4jXpPFQw0GAbJ--17" vertex="1">
          <mxGeometry y="82" width="320" height="26" as="geometry" />
        </mxCell>
        <mxCell id="s57DOJI4i6BRteukUd8u-6" value="- count_of_car_: int" style="text;align=left;verticalAlign=top;spacingLeft=4;spacingRight=4;overflow=hidden;rotatable=0;points=[[0,0.5],[1,0.5]];portConstraint=eastwest;rounded=0;shadow=0;html=0;" vertex="1" parent="zkfFHV4jXpPFQw0GAbJ--17">
          <mxGeometry y="108" width="320" height="26" as="geometry" />
        </mxCell>
        <mxCell id="zkfFHV4jXpPFQw0GAbJ--23" value="" style="line;html=1;strokeWidth=1;align=left;verticalAlign=middle;spacingTop=-1;spacingLeft=3;spacingRight=3;rotatable=0;labelPosition=right;points=[];portConstraint=eastwest;" parent="zkfFHV4jXpPFQw0GAbJ--17" vertex="1">
          <mxGeometry y="134" width="320" height="8" as="geometry" />
        </mxCell>
        <mxCell id="zkfFHV4jXpPFQw0GAbJ--24" value="+ Car(const Owner&amp;, const Engine&amp;, &#xa;          const std::vector&lt;Wheel&gt;&amp;)" style="text;align=left;verticalAlign=top;spacingLeft=4;spacingRight=4;overflow=hidden;rotatable=0;points=[[0,0.5],[1,0.5]];portConstraint=eastwest;" parent="zkfFHV4jXpPFQw0GAbJ--17" vertex="1">
          <mxGeometry y="142" width="320" height="38" as="geometry" />
        </mxCell>
        <mxCell id="zkfFHV4jXpPFQw0GAbJ--25" value="+ virtual count_info(): int" style="text;align=left;verticalAlign=top;spacingLeft=4;spacingRight=4;overflow=hidden;rotatable=0;points=[[0,0.5],[1,0.5]];portConstraint=eastwest;" parent="zkfFHV4jXpPFQw0GAbJ--17" vertex="1">
          <mxGeometry y="180" width="320" height="26" as="geometry" />
        </mxCell>
        <mxCell id="5PPMLMj4jmD3S_VS75an-1" value="+ virtual owner_info(): Owner" style="text;strokeColor=none;fillColor=none;align=left;verticalAlign=middle;spacingLeft=4;spacingRight=4;overflow=hidden;points=[[0,0.5],[1,0.5]];portConstraint=eastwest;rotatable=0;whiteSpace=wrap;html=1;" parent="zkfFHV4jXpPFQw0GAbJ--17" vertex="1">
          <mxGeometry y="206" width="320" height="30" as="geometry" />
        </mxCell>
        <mxCell id="5PPMLMj4jmD3S_VS75an-13" style="edgeStyle=orthogonalEdgeStyle;rounded=0;orthogonalLoop=1;jettySize=auto;html=1;entryX=0;entryY=0.5;entryDx=0;entryDy=0;endArrow=blockThin;endFill=0;strokeColor=#000000;strokeWidth=1;endSize=15;" parent="WIyWlLk6GJQsqaUBKTNV-1" source="5PPMLMj4jmD3S_VS75an-5" target="zkfFHV4jXpPFQw0GAbJ--25" edge="1">
          <mxGeometry relative="1" as="geometry" />
        </mxCell>
        <mxCell id="5PPMLMj4jmD3S_VS75an-5" value="PassengerCar" style="swimlane;fontStyle=0;align=center;verticalAlign=top;childLayout=stackLayout;horizontal=1;startSize=26;horizontalStack=0;resizeParent=1;resizeLast=0;collapsible=1;marginBottom=0;rounded=0;shadow=0;strokeWidth=1;" parent="WIyWlLk6GJQsqaUBKTNV-1" vertex="1">
          <mxGeometry x="230" y="730" width="240" height="194" as="geometry">
            <mxRectangle x="550" y="140" width="160" height="26" as="alternateBounds" />
          </mxGeometry>
        </mxCell>
        <mxCell id="5PPMLMj4jmD3S_VS75an-6" value="- count_of_passenger_: int" style="text;align=left;verticalAlign=top;spacingLeft=4;spacingRight=4;overflow=hidden;rotatable=0;points=[[0,0.5],[1,0.5]];portConstraint=eastwest;" parent="5PPMLMj4jmD3S_VS75an-5" vertex="1">
          <mxGeometry y="26" width="240" height="26" as="geometry" />
        </mxCell>
        <mxCell id="5PPMLMj4jmD3S_VS75an-9" value="" style="line;html=1;strokeWidth=1;align=left;verticalAlign=middle;spacingTop=-1;spacingLeft=3;spacingRight=3;rotatable=0;labelPosition=right;points=[];portConstraint=eastwest;" parent="5PPMLMj4jmD3S_VS75an-5" vertex="1">
          <mxGeometry y="52" width="240" height="8" as="geometry" />
        </mxCell>
        <mxCell id="5PPMLMj4jmD3S_VS75an-10" value="+ Car(int)" style="text;align=left;verticalAlign=top;spacingLeft=4;spacingRight=4;overflow=hidden;rotatable=0;points=[[0,0.5],[1,0.5]];portConstraint=eastwest;" parent="5PPMLMj4jmD3S_VS75an-5" vertex="1">
          <mxGeometry y="60" width="240" height="26" as="geometry" />
        </mxCell>
        <mxCell id="s57DOJI4i6BRteukUd8u-7" value="+ GetCountOfPassengers(): int" style="text;align=left;verticalAlign=top;spacingLeft=4;spacingRight=4;overflow=hidden;rotatable=0;points=[[0,0.5],[1,0.5]];portConstraint=eastwest;" vertex="1" parent="5PPMLMj4jmD3S_VS75an-5">
          <mxGeometry y="86" width="240" height="26" as="geometry" />
        </mxCell>
        <mxCell id="s57DOJI4i6BRteukUd8u-12" value="+ SetCountOfPassengers(int): void" style="text;align=left;verticalAlign=top;spacingLeft=4;spacingRight=4;overflow=hidden;rotatable=0;points=[[0,0.5],[1,0.5]];portConstraint=eastwest;" vertex="1" parent="5PPMLMj4jmD3S_VS75an-5">
          <mxGeometry y="112" width="240" height="26" as="geometry" />
        </mxCell>
        <mxCell id="5PPMLMj4jmD3S_VS75an-11" value="+ count_info(): int" style="text;align=left;verticalAlign=top;spacingLeft=4;spacingRight=4;overflow=hidden;rotatable=0;points=[[0,0.5],[1,0.5]];portConstraint=eastwest;" parent="5PPMLMj4jmD3S_VS75an-5" vertex="1">
          <mxGeometry y="138" width="240" height="26" as="geometry" />
        </mxCell>
        <mxCell id="5PPMLMj4jmD3S_VS75an-12" value="+ owner_info(): Owner" style="text;strokeColor=none;fillColor=none;align=left;verticalAlign=middle;spacingLeft=4;spacingRight=4;overflow=hidden;points=[[0,0.5],[1,0.5]];portConstraint=eastwest;rotatable=0;whiteSpace=wrap;html=1;" parent="5PPMLMj4jmD3S_VS75an-5" vertex="1">
          <mxGeometry y="164" width="240" height="30" as="geometry" />
        </mxCell>
        <mxCell id="5PPMLMj4jmD3S_VS75an-14" value="Queue" style="swimlane;fontStyle=0;align=center;verticalAlign=top;childLayout=stackLayout;horizontal=1;startSize=26;horizontalStack=0;resizeParent=1;resizeLast=0;collapsible=1;marginBottom=0;rounded=0;shadow=0;strokeWidth=1;" parent="WIyWlLk6GJQsqaUBKTNV-1" vertex="1">
          <mxGeometry x="555" y="770" width="230" height="318" as="geometry">
            <mxRectangle x="550" y="140" width="160" height="26" as="alternateBounds" />
          </mxGeometry>
        </mxCell>
        <mxCell id="5PPMLMj4jmD3S_VS75an-15" value="- vehicles_ : vehicle" style="text;align=left;verticalAlign=top;spacingLeft=4;spacingRight=4;overflow=hidden;rotatable=0;points=[[0,0.5],[1,0.5]];portConstraint=eastwest;" parent="5PPMLMj4jmD3S_VS75an-14" vertex="1">
          <mxGeometry y="26" width="230" height="26" as="geometry" />
        </mxCell>
        <mxCell id="s57DOJI4i6BRteukUd8u-16" value="- ReadData_(std::ifstream&amp;): void" style="text;align=left;verticalAlign=top;spacingLeft=4;spacingRight=4;overflow=hidden;rotatable=0;points=[[0,0.5],[1,0.5]];portConstraint=eastwest;" vertex="1" parent="5PPMLMj4jmD3S_VS75an-14">
          <mxGeometry y="52" width="230" height="26" as="geometry" />
        </mxCell>
        <mxCell id="s57DOJI4i6BRteukUd8u-15" value="- Parse_(const std::string): &#xa;                std::shared_ptr&lt;Car&gt;" style="text;align=left;verticalAlign=top;spacingLeft=4;spacingRight=4;overflow=hidden;rotatable=0;points=[[0,0.5],[1,0.5]];portConstraint=eastwest;" vertex="1" parent="5PPMLMj4jmD3S_VS75an-14">
          <mxGeometry y="78" width="230" height="38" as="geometry" />
        </mxCell>
        <mxCell id="5PPMLMj4jmD3S_VS75an-18" value="" style="line;html=1;strokeWidth=1;align=left;verticalAlign=middle;spacingTop=-1;spacingLeft=3;spacingRight=3;rotatable=0;labelPosition=right;points=[];portConstraint=eastwest;" parent="5PPMLMj4jmD3S_VS75an-14" vertex="1">
          <mxGeometry y="116" width="230" height="8" as="geometry" />
        </mxCell>
        <mxCell id="s57DOJI4i6BRteukUd8u-13" value="+ Queue(const std::string&amp;)" style="text;align=left;verticalAlign=top;spacingLeft=4;spacingRight=4;overflow=hidden;rotatable=0;points=[[0,0.5],[1,0.5]];portConstraint=eastwest;" vertex="1" parent="5PPMLMj4jmD3S_VS75an-14">
          <mxGeometry y="124" width="230" height="26" as="geometry" />
        </mxCell>
        <mxCell id="s57DOJI4i6BRteukUd8u-14" value="+ ~Queue(const vehicle&amp;)" style="text;align=left;verticalAlign=top;spacingLeft=4;spacingRight=4;overflow=hidden;rotatable=0;points=[[0,0.5],[1,0.5]];portConstraint=eastwest;" vertex="1" parent="5PPMLMj4jmD3S_VS75an-14">
          <mxGeometry y="150" width="230" height="26" as="geometry" />
        </mxCell>
        <mxCell id="5PPMLMj4jmD3S_VS75an-19" value="+ Push(std::shared_ptr&lt;Car&gt;): void" style="text;align=left;verticalAlign=top;spacingLeft=4;spacingRight=4;overflow=hidden;rotatable=0;points=[[0,0.5],[1,0.5]];portConstraint=eastwest;" parent="5PPMLMj4jmD3S_VS75an-14" vertex="1">
          <mxGeometry y="176" width="230" height="26" as="geometry" />
        </mxCell>
        <mxCell id="s57DOJI4i6BRteukUd8u-11" value="+ F&lt;span style=&quot;background-color: transparent; color: light-dark(rgb(0, 0, 0), rgb(255, 255, 255));&quot;&gt;ront(): std::shared_ptr&amp;lt;Car&amp;gt;&lt;/span&gt;" style="text;strokeColor=none;fillColor=none;align=left;verticalAlign=middle;spacingLeft=4;spacingRight=4;overflow=hidden;points=[[0,0.5],[1,0.5]];portConstraint=eastwest;rotatable=0;whiteSpace=wrap;html=1;" vertex="1" parent="5PPMLMj4jmD3S_VS75an-14">
          <mxGeometry y="202" width="230" height="30" as="geometry" />
        </mxCell>
        <mxCell id="5PPMLMj4jmD3S_VS75an-20" value="+ Pop(): void" style="text;align=left;verticalAlign=top;spacingLeft=4;spacingRight=4;overflow=hidden;rotatable=0;points=[[0,0.5],[1,0.5]];portConstraint=eastwest;" parent="5PPMLMj4jmD3S_VS75an-14" vertex="1">
          <mxGeometry y="232" width="230" height="26" as="geometry" />
        </mxCell>
        <mxCell id="s57DOJI4i6BRteukUd8u-10" value="+ Empty(): bool" style="text;strokeColor=none;fillColor=none;align=left;verticalAlign=middle;spacingLeft=4;spacingRight=4;overflow=hidden;points=[[0,0.5],[1,0.5]];portConstraint=eastwest;rotatable=0;whiteSpace=wrap;html=1;" vertex="1" parent="5PPMLMj4jmD3S_VS75an-14">
          <mxGeometry y="258" width="230" height="30" as="geometry" />
        </mxCell>
        <mxCell id="5PPMLMj4jmD3S_VS75an-21" value="+ Size(): size_t" style="text;strokeColor=none;fillColor=none;align=left;verticalAlign=middle;spacingLeft=4;spacingRight=4;overflow=hidden;points=[[0,0.5],[1,0.5]];portConstraint=eastwest;rotatable=0;whiteSpace=wrap;html=1;" parent="5PPMLMj4jmD3S_VS75an-14" vertex="1">
          <mxGeometry y="288" width="230" height="30" as="geometry" />
        </mxCell>
        <mxCell id="5PPMLMj4jmD3S_VS75an-30" style="edgeStyle=orthogonalEdgeStyle;rounded=0;orthogonalLoop=1;jettySize=auto;html=1;entryX=1;entryY=0.5;entryDx=0;entryDy=0;endArrow=blockThin;endFill=0;strokeWidth=1;endSize=15;" parent="WIyWlLk6GJQsqaUBKTNV-1" source="5PPMLMj4jmD3S_VS75an-22" target="zkfFHV4jXpPFQw0GAbJ--25" edge="1">
          <mxGeometry relative="1" as="geometry" />
        </mxCell>
        <mxCell id="5PPMLMj4jmD3S_VS75an-22" value="Truck" style="swimlane;fontStyle=0;align=center;verticalAlign=top;childLayout=stackLayout;horizontal=1;startSize=26;horizontalStack=0;resizeParent=1;resizeLast=0;collapsible=1;marginBottom=0;rounded=0;shadow=0;strokeWidth=1;" parent="WIyWlLk6GJQsqaUBKTNV-1" vertex="1">
          <mxGeometry x="870" y="730" width="240" height="194" as="geometry">
            <mxRectangle x="550" y="140" width="160" height="26" as="alternateBounds" />
          </mxGeometry>
        </mxCell>
        <mxCell id="5PPMLMj4jmD3S_VS75an-23" value="- capacity_: double" style="text;align=left;verticalAlign=top;spacingLeft=4;spacingRight=4;overflow=hidden;rotatable=0;points=[[0,0.5],[1,0.5]];portConstraint=eastwest;" parent="5PPMLMj4jmD3S_VS75an-22" vertex="1">
          <mxGeometry y="26" width="240" height="26" as="geometry" />
        </mxCell>
        <mxCell id="5PPMLMj4jmD3S_VS75an-26" value="" style="line;html=1;strokeWidth=1;align=left;verticalAlign=middle;spacingTop=-1;spacingLeft=3;spacingRight=3;rotatable=0;labelPosition=right;points=[];portConstraint=eastwest;" parent="5PPMLMj4jmD3S_VS75an-22" vertex="1">
          <mxGeometry y="52" width="240" height="8" as="geometry" />
        </mxCell>
        <mxCell id="5PPMLMj4jmD3S_VS75an-27" value="+ Truck(double)" style="text;align=left;verticalAlign=top;spacingLeft=4;spacingRight=4;overflow=hidden;rotatable=0;points=[[0,0.5],[1,0.5]];portConstraint=eastwest;" parent="5PPMLMj4jmD3S_VS75an-22" vertex="1">
          <mxGeometry y="60" width="240" height="26" as="geometry" />
        </mxCell>
        <mxCell id="s57DOJI4i6BRteukUd8u-8" value="+ GetCapacity():  double" style="text;align=left;verticalAlign=top;spacingLeft=4;spacingRight=4;overflow=hidden;rotatable=0;points=[[0,0.5],[1,0.5]];portConstraint=eastwest;" vertex="1" parent="5PPMLMj4jmD3S_VS75an-22">
          <mxGeometry y="86" width="240" height="26" as="geometry" />
        </mxCell>
        <mxCell id="s57DOJI4i6BRteukUd8u-9" value="+ SetCapacity(double): void" style="text;align=left;verticalAlign=top;spacingLeft=4;spacingRight=4;overflow=hidden;rotatable=0;points=[[0,0.5],[1,0.5]];portConstraint=eastwest;" vertex="1" parent="5PPMLMj4jmD3S_VS75an-22">
          <mxGeometry y="112" width="240" height="26" as="geometry" />
        </mxCell>
        <mxCell id="5PPMLMj4jmD3S_VS75an-28" value="+ count_info(): int" style="text;align=left;verticalAlign=top;spacingLeft=4;spacingRight=4;overflow=hidden;rotatable=0;points=[[0,0.5],[1,0.5]];portConstraint=eastwest;" parent="5PPMLMj4jmD3S_VS75an-22" vertex="1">
          <mxGeometry y="138" width="240" height="26" as="geometry" />
        </mxCell>
        <mxCell id="5PPMLMj4jmD3S_VS75an-29" value="+ owner_info(): Owner" style="text;strokeColor=none;fillColor=none;align=left;verticalAlign=middle;spacingLeft=4;spacingRight=4;overflow=hidden;points=[[0,0.5],[1,0.5]];portConstraint=eastwest;rotatable=0;whiteSpace=wrap;html=1;" parent="5PPMLMj4jmD3S_VS75an-22" vertex="1">
          <mxGeometry y="164" width="240" height="30" as="geometry" />
        </mxCell>
        <mxCell id="5PPMLMj4jmD3S_VS75an-58" style="edgeStyle=orthogonalEdgeStyle;rounded=0;orthogonalLoop=1;jettySize=auto;html=1;entryX=0;entryY=0.5;entryDx=0;entryDy=0;endArrow=diamondThin;endFill=0;endSize=15;" parent="WIyWlLk6GJQsqaUBKTNV-1" source="5PPMLMj4jmD3S_VS75an-33" target="5PPMLMj4jmD3S_VS75an-0" edge="1">
          <mxGeometry relative="1" as="geometry" />
        </mxCell>
        <mxCell id="5PPMLMj4jmD3S_VS75an-33" value="Owner" style="swimlane;fontStyle=0;align=center;verticalAlign=top;childLayout=stackLayout;horizontal=1;startSize=26;horizontalStack=0;resizeParent=1;resizeLast=0;collapsible=1;marginBottom=0;rounded=0;shadow=0;strokeWidth=1;" parent="WIyWlLk6GJQsqaUBKTNV-1" vertex="1">
          <mxGeometry x="160" y="240" width="310" height="180" as="geometry">
            <mxRectangle x="550" y="140" width="160" height="26" as="alternateBounds" />
          </mxGeometry>
        </mxCell>
        <mxCell id="5PPMLMj4jmD3S_VS75an-34" value="- name_: string" style="text;align=left;verticalAlign=top;spacingLeft=4;spacingRight=4;overflow=hidden;rotatable=0;points=[[0,0.5],[1,0.5]];portConstraint=eastwest;" parent="5PPMLMj4jmD3S_VS75an-33" vertex="1">
          <mxGeometry y="26" width="310" height="26" as="geometry" />
        </mxCell>
        <mxCell id="5PPMLMj4jmD3S_VS75an-35" value="- age_ : int" style="text;strokeColor=none;fillColor=none;align=left;verticalAlign=middle;spacingLeft=4;spacingRight=4;overflow=hidden;points=[[0,0.5],[1,0.5]];portConstraint=eastwest;rotatable=0;whiteSpace=wrap;html=1;" parent="5PPMLMj4jmD3S_VS75an-33" vertex="1">
          <mxGeometry y="52" width="310" height="30" as="geometry" />
        </mxCell>
        <mxCell id="5PPMLMj4jmD3S_VS75an-37" value="" style="line;html=1;strokeWidth=1;align=left;verticalAlign=middle;spacingTop=-1;spacingLeft=3;spacingRight=3;rotatable=0;labelPosition=right;points=[];portConstraint=eastwest;" parent="5PPMLMj4jmD3S_VS75an-33" vertex="1">
          <mxGeometry y="82" width="310" height="8" as="geometry" />
        </mxCell>
        <mxCell id="5PPMLMj4jmD3S_VS75an-38" value="+ Owner(const string&amp;, int age)" style="text;align=left;verticalAlign=top;spacingLeft=4;spacingRight=4;overflow=hidden;rotatable=0;points=[[0,0.5],[1,0.5]];portConstraint=eastwest;" parent="5PPMLMj4jmD3S_VS75an-33" vertex="1">
          <mxGeometry y="90" width="310" height="26" as="geometry" />
        </mxCell>
        <mxCell id="5PPMLMj4jmD3S_VS75an-39" value="+ GetName() const: string" style="text;align=left;verticalAlign=top;spacingLeft=4;spacingRight=4;overflow=hidden;rotatable=0;points=[[0,0.5],[1,0.5]];portConstraint=eastwest;" parent="5PPMLMj4jmD3S_VS75an-33" vertex="1">
          <mxGeometry y="116" width="310" height="26" as="geometry" />
        </mxCell>
        <mxCell id="5PPMLMj4jmD3S_VS75an-40" value="+ SetName(const string&amp;amp;): void" style="text;strokeColor=none;fillColor=none;align=left;verticalAlign=middle;spacingLeft=4;spacingRight=4;overflow=hidden;points=[[0,0.5],[1,0.5]];portConstraint=eastwest;rotatable=0;whiteSpace=wrap;html=1;" parent="5PPMLMj4jmD3S_VS75an-33" vertex="1">
          <mxGeometry y="142" width="310" height="30" as="geometry" />
        </mxCell>
        <mxCell id="6nx7gw-P1733GF0e0n3k-0" style="edgeStyle=orthogonalEdgeStyle;rounded=0;orthogonalLoop=1;jettySize=auto;html=1;exitX=0.5;exitY=1;exitDx=0;exitDy=0;entryX=0.5;entryY=0;entryDx=0;entryDy=0;endArrow=diamondThin;endFill=1;endSize=15;" parent="WIyWlLk6GJQsqaUBKTNV-1" source="5PPMLMj4jmD3S_VS75an-41" target="zkfFHV4jXpPFQw0GAbJ--17" edge="1">
          <mxGeometry relative="1" as="geometry" />
        </mxCell>
        <mxCell id="5PPMLMj4jmD3S_VS75an-41" value="Engine" style="swimlane;fontStyle=0;align=center;verticalAlign=top;childLayout=stackLayout;horizontal=1;startSize=26;horizontalStack=0;resizeParent=1;resizeLast=0;collapsible=1;marginBottom=0;rounded=0;shadow=0;strokeWidth=1;" parent="WIyWlLk6GJQsqaUBKTNV-1" vertex="1">
          <mxGeometry x="515" y="160" width="310" height="210" as="geometry">
            <mxRectangle x="550" y="140" width="160" height="26" as="alternateBounds" />
          </mxGeometry>
        </mxCell>
        <mxCell id="5PPMLMj4jmD3S_VS75an-42" value="- volume_: float" style="text;align=left;verticalAlign=top;spacingLeft=4;spacingRight=4;overflow=hidden;rotatable=0;points=[[0,0.5],[1,0.5]];portConstraint=eastwest;" parent="5PPMLMj4jmD3S_VS75an-41" vertex="1">
          <mxGeometry y="26" width="310" height="26" as="geometry" />
        </mxCell>
        <mxCell id="5PPMLMj4jmD3S_VS75an-43" value="- power_: float" style="text;strokeColor=none;fillColor=none;align=left;verticalAlign=middle;spacingLeft=4;spacingRight=4;overflow=hidden;points=[[0,0.5],[1,0.5]];portConstraint=eastwest;rotatable=0;whiteSpace=wrap;html=1;" parent="5PPMLMj4jmD3S_VS75an-41" vertex="1">
          <mxGeometry y="52" width="310" height="30" as="geometry" />
        </mxCell>
        <mxCell id="5PPMLMj4jmD3S_VS75an-45" value="" style="line;html=1;strokeWidth=1;align=left;verticalAlign=middle;spacingTop=-1;spacingLeft=3;spacingRight=3;rotatable=0;labelPosition=right;points=[];portConstraint=eastwest;" parent="5PPMLMj4jmD3S_VS75an-41" vertex="1">
          <mxGeometry y="82" width="310" height="8" as="geometry" />
        </mxCell>
        <mxCell id="5PPMLMj4jmD3S_VS75an-46" value="+ Engine(float, float)" style="text;align=left;verticalAlign=top;spacingLeft=4;spacingRight=4;overflow=hidden;rotatable=0;points=[[0,0.5],[1,0.5]];portConstraint=eastwest;" parent="5PPMLMj4jmD3S_VS75an-41" vertex="1">
          <mxGeometry y="90" width="310" height="26" as="geometry" />
        </mxCell>
        <mxCell id="5PPMLMj4jmD3S_VS75an-47" value="+ GetPower(): float" style="text;align=left;verticalAlign=top;spacingLeft=4;spacingRight=4;overflow=hidden;rotatable=0;points=[[0,0.5],[1,0.5]];portConstraint=eastwest;" parent="5PPMLMj4jmD3S_VS75an-41" vertex="1">
          <mxGeometry y="116" width="310" height="26" as="geometry" />
        </mxCell>
        <mxCell id="5PPMLMj4jmD3S_VS75an-48" value="+ GetVolume(): float" style="text;strokeColor=none;fillColor=none;align=left;verticalAlign=middle;spacingLeft=4;spacingRight=4;overflow=hidden;points=[[0,0.5],[1,0.5]];portConstraint=eastwest;rotatable=0;whiteSpace=wrap;html=1;" parent="5PPMLMj4jmD3S_VS75an-41" vertex="1">
          <mxGeometry y="142" width="310" height="30" as="geometry" />
        </mxCell>
        <mxCell id="6nx7gw-P1733GF0e0n3k-1" style="edgeStyle=orthogonalEdgeStyle;rounded=0;orthogonalLoop=1;jettySize=auto;html=1;entryX=1;entryY=0.5;entryDx=0;entryDy=0;endArrow=diamondThin;endFill=1;endSize=15;" parent="WIyWlLk6GJQsqaUBKTNV-1" source="5PPMLMj4jmD3S_VS75an-49" target="5PPMLMj4jmD3S_VS75an-0" edge="1">
          <mxGeometry relative="1" as="geometry" />
        </mxCell>
        <mxCell id="5PPMLMj4jmD3S_VS75an-49" value="Wheel" style="swimlane;fontStyle=0;align=center;verticalAlign=top;childLayout=stackLayout;horizontal=1;startSize=26;horizontalStack=0;resizeParent=1;resizeLast=0;collapsible=1;marginBottom=0;rounded=0;shadow=0;strokeWidth=1;" parent="WIyWlLk6GJQsqaUBKTNV-1" vertex="1">
          <mxGeometry x="870" y="210" width="310" height="210" as="geometry">
            <mxRectangle x="550" y="140" width="160" height="26" as="alternateBounds" />
          </mxGeometry>
        </mxCell>
        <mxCell id="5PPMLMj4jmD3S_VS75an-50" value="- owner_: Owner" style="text;align=left;verticalAlign=top;spacingLeft=4;spacingRight=4;overflow=hidden;rotatable=0;points=[[0,0.5],[1,0.5]];portConstraint=eastwest;" parent="5PPMLMj4jmD3S_VS75an-49" vertex="1">
          <mxGeometry y="26" width="310" height="26" as="geometry" />
        </mxCell>
        <mxCell id="5PPMLMj4jmD3S_VS75an-51" value="- engine_: Engine" style="text;strokeColor=none;fillColor=none;align=left;verticalAlign=middle;spacingLeft=4;spacingRight=4;overflow=hidden;points=[[0,0.5],[1,0.5]];portConstraint=eastwest;rotatable=0;whiteSpace=wrap;html=1;" parent="5PPMLMj4jmD3S_VS75an-49" vertex="1">
          <mxGeometry y="52" width="310" height="30" as="geometry" />
        </mxCell>
        <mxCell id="5PPMLMj4jmD3S_VS75an-52" value="- wheel_: Wheel" style="text;align=left;verticalAlign=top;spacingLeft=4;spacingRight=4;overflow=hidden;rotatable=0;points=[[0,0.5],[1,0.5]];portConstraint=eastwest;rounded=0;shadow=0;html=0;" parent="5PPMLMj4jmD3S_VS75an-49" vertex="1">
          <mxGeometry y="82" width="310" height="26" as="geometry" />
        </mxCell>
        <mxCell id="5PPMLMj4jmD3S_VS75an-53" value="" style="line;html=1;strokeWidth=1;align=left;verticalAlign=middle;spacingTop=-1;spacingLeft=3;spacingRight=3;rotatable=0;labelPosition=right;points=[];portConstraint=eastwest;" parent="5PPMLMj4jmD3S_VS75an-49" vertex="1">
          <mxGeometry y="108" width="310" height="8" as="geometry" />
        </mxCell>
        <mxCell id="5PPMLMj4jmD3S_VS75an-54" value="+ Wheel(int raidus)" style="text;align=left;verticalAlign=top;spacingLeft=4;spacingRight=4;overflow=hidden;rotatable=0;points=[[0,0.5],[1,0.5]];portConstraint=eastwest;" parent="5PPMLMj4jmD3S_VS75an-49" vertex="1">
          <mxGeometry y="116" width="310" height="26" as="geometry" />
        </mxCell>
        <mxCell id="5PPMLMj4jmD3S_VS75an-55" value="+ GetRadius(): int" style="text;align=left;verticalAlign=top;spacingLeft=4;spacingRight=4;overflow=hidden;rotatable=0;points=[[0,0.5],[1,0.5]];portConstraint=eastwest;" parent="5PPMLMj4jmD3S_VS75an-49" vertex="1">
          <mxGeometry y="142" width="310" height="26" as="geometry" />
        </mxCell>
        <mxCell id="5PPMLMj4jmD3S_VS75an-56" value="+ SetRadius(): Owner" style="text;strokeColor=none;fillColor=none;align=left;verticalAlign=middle;spacingLeft=4;spacingRight=4;overflow=hidden;points=[[0,0.5],[1,0.5]];portConstraint=eastwest;rotatable=0;whiteSpace=wrap;html=1;" parent="5PPMLMj4jmD3S_VS75an-49" vertex="1">
          <mxGeometry y="168" width="310" height="30" as="geometry" />
        </mxCell>
        <mxCell id="s57DOJI4i6BRteukUd8u-4" value="&lt;font style=&quot;font-size: 16px;&quot;&gt;1&lt;/font&gt;" style="text;html=1;align=center;verticalAlign=middle;whiteSpace=wrap;rounded=0;" vertex="1" parent="WIyWlLk6GJQsqaUBKTNV-1">
          <mxGeometry x="660" y="370" width="60" height="30" as="geometry" />
        </mxCell>
        <mxCell id="s57DOJI4i6BRteukUd8u-5" value="&lt;font style=&quot;font-size: 16px;&quot;&gt;4&lt;/font&gt;" style="text;html=1;align=center;verticalAlign=middle;whiteSpace=wrap;rounded=0;" vertex="1" parent="WIyWlLk6GJQsqaUBKTNV-1">
          <mxGeometry x="1010" y="420" width="60" height="30" as="geometry" />
        </mxCell>
      </root>
    </mxGraphModel>
  </diagram>
</mxfile>
